<?xml version="1.0" encoding="utf-8"?>
<!-- Generator: Adobe Illustrator 16.2.0, SVG Export Plug-In . SVG Version: 6.00 Build 0)  -->
<!DOCTYPE svg PUBLIC "-//W3C//DTD SVG 1.1//EN" "http://www.w3.org/Graphics/SVG/1.1/DTD/svg11.dtd">
<svg version="1.1" id="main" xmlns="http://www.w3.org/2000/svg" xmlns:xlink="http://www.w3.org/1999/xlink" x="0px" y="0px"
	 width="305.607px" height="69.608px" viewBox="0 0 305.607 69.608" style="enable-background:new 0 0 305.607 69.608;"
	 xml:space="preserve">
<g>
	<polygon style="fill-rule:evenodd;clip-rule:evenodd;fill:#FF2929;" points="-51.562,-119.939 -33.012,-119.971 -51.589,-144.62 	
		"/>
	<path style="fill-rule:evenodd;clip-rule:evenodd;fill:#FF2929;" d="M-73-185v65.017h11.6v-50.481l9.758-0.003l0.01,23.308
		c0,0,0.025-0.019,0.05-0.033v0.106c7.859-4.839,13.939-13.226,16.838-23.381h10.351c0,0-3.321,10.217-7.127,16.112
		c-3.799,5.89-8.699,8.319-8.699,8.319l0.015,0.13l9.166,12.028c3.317-0.677,9.1-2.813,13.552-9.551
		C-8.148-157.574-7.795-185-7.795-185H-73z"/>
</g>
<g>
	<path style="fill:#FFFFFF;" d="M2.189-141.413h2.525v18.81H2.189V-141.413z M4.796-132.276l7.443-9.136h3.197l-7.443,9.136
		l8.089,9.673h-3.278L4.796-132.276z"/>
	<path style="fill:#FFFFFF;" d="M27.261-141.627c5.67,0,9.513,3.896,9.513,9.62s-3.843,9.62-9.513,9.62s-9.539-3.896-9.539-9.62
		S21.591-141.627,27.261-141.627z M27.261-124.672c4.085,0,6.879-2.983,6.879-7.336s-2.794-7.335-6.879-7.335
		c-4.084,0-6.905,2.982-6.905,7.335S23.177-124.672,27.261-124.672z"/>
	<path style="fill:#FFFFFF;" d="M56.578-136.2l-5.911,9.458h-1.021l-5.911-9.458v13.597h-2.553v-18.81h1.935l7.04,11.017
		l7.066-11.017h1.908v18.81h-2.553V-136.2z"/>
	<path style="fill:#FFFFFF;" d="M66.656-133.109h6.663v2.123h-6.663v6.288h7.657v2.096h-10.21v-18.81H74.18v2.123h-7.523V-133.109z"
		/>
	<path style="fill:#FFFFFF;" d="M80.037-122.603v4.031h-2.392v-6.046c1.882,0,3.063-1.424,3.063-4.165v-12.629h11.689v16.714h1.961
		v6.126h-2.364v-4.031H80.037z M81.918-124.699h7.847v-14.591h-6.422v10.506C83.343-127.117,82.886-125.667,81.918-124.699z"/>
	<path style="fill:#FFFFFF;" d="M113.546-141.413v18.81h-2.553v-13.946l-10.963,13.946h-1.692v-18.81h2.553v13.946l10.989-13.946
		H113.546z"/>
	<path style="fill:#FFFFFF;" d="M131.282-127.574h-8.895l-2.149,4.971h-2.956l8.357-18.81h2.392l8.356,18.81h-2.956L131.282-127.574
		z M123.302-129.858h7.04l-3.493-8.276L123.302-129.858z"/>
	<path style="fill:#FFFFFF;" d="M142.677-133.109h9.754v-8.303h2.525v18.81h-2.525v-8.384h-9.754v8.384h-2.553v-18.81h2.553
		V-133.109z"/>
	<path style="fill:#FFFFFF;" d="M166.888-122.603h-2.553v-16.687h-5.213v-2.123h12.979v2.123h-5.213V-122.603z"/>
	<path style="fill:#FFFFFF;" d="M176.24-141.413h2.633v8.034h2.956c3.386,0,5.696,2.123,5.696,5.375
		c0,3.305-2.311,5.401-5.696,5.401h-5.589V-141.413z M181.829-131.175h-2.956v6.368h2.956c1.827,0,3.063-1.263,3.063-3.197
		C184.893-129.912,183.656-131.175,181.829-131.175z M189.998-141.413h2.553v18.81h-2.553V-141.413z"/>
</g>
<g>
	<path style="fill:#FFFFFF;" d="M3.104-181.36h3.54v0.221H3.325v7.522H3.104V-181.36z"/>
	<path style="fill:#FFFFFF;" d="M11.757-181.416c2.268,0,3.816,1.593,3.816,3.927c0,2.334-1.549,3.927-3.816,3.927
		c-2.279,0-3.816-1.593-3.816-3.927C7.94-179.823,9.478-181.416,11.757-181.416z M11.757-173.783c2.146,0,3.596-1.504,3.596-3.706
		c0-2.201-1.449-3.706-3.596-3.706c-2.135,0-3.596,1.505-3.596,3.706C8.161-175.287,9.622-173.783,11.757-173.783z"/>
	<path style="fill:#FFFFFF;" d="M21.272-173.783c1.095,0,2.002-0.387,2.633-1.062l0.166,0.155c-0.675,0.719-1.648,1.128-2.799,1.128
		c-2.279,0-3.816-1.593-3.816-3.927c0-2.334,1.537-3.927,3.816-3.927c1.15,0,2.124,0.42,2.799,1.128l-0.166,0.166
		c-0.631-0.675-1.538-1.073-2.633-1.073c-2.135,0-3.596,1.505-3.596,3.706C17.677-175.287,19.138-173.783,21.272-173.783z"/>
	<path style="fill:#FFFFFF;" d="M27.237-173.617h-0.243l1.271-2.434l-2.754-5.31h0.243l2.633,5.066l2.633-5.066h0.243
		L27.237-173.617z"/>
	<path style="fill:#FFFFFF;" d="M32.592-173.617v1.659H32.37v-1.88c0.808,0,1.328-0.476,1.328-1.715v-5.808h4.203v7.522h0.774v1.88
		h-0.221v-1.659H32.592z M33.223-173.838h4.458v-7.301h-3.762v5.598C33.919-174.701,33.665-174.125,33.223-173.838z"/>
	<path style="fill:#FFFFFF;" d="M45.924-176.382h-4.182l-1.217,2.766h-0.243l3.429-7.744h0.244l3.429,7.744h-0.243L45.924-176.382z
		 M41.842-176.604h3.982l-1.991-4.514L41.842-176.604z"/>
	<path style="fill:#FFFFFF;" d="M49.543-181.36h1.825c1.184,0,1.991,0.796,1.991,2.024c0,1.217-0.808,2.013-1.991,2.013h-1.604
		v3.706h-0.221V-181.36z M51.368-181.139h-1.604v3.595h1.604c1.062,0,1.77-0.719,1.77-1.792
		C53.138-180.42,52.43-181.139,51.368-181.139z"/>
	<path style="fill:#FFFFFF;" d="M58.893-173.783c1.095,0,2.002-0.387,2.633-1.062l0.166,0.155c-0.675,0.719-1.648,1.128-2.799,1.128
		c-2.279,0-3.816-1.593-3.816-3.927c0-2.334,1.537-3.927,3.816-3.927c1.15,0,2.124,0.42,2.799,1.128l-0.166,0.166
		c-0.631-0.675-1.538-1.073-2.633-1.073c-2.135,0-3.596,1.505-3.596,3.706C55.297-175.287,56.758-173.783,58.893-173.783z"/>
	<path style="fill:#FFFFFF;" d="M66.007-173.617h-0.221v-7.522h-2.435v-0.221h5.089v0.221h-2.434V-173.617z"/>
	<path style="fill:#FFFFFF;" d="M70.633-181.36h1.77c1.14,0,1.914,0.763,1.914,1.936c0,0.863-0.42,1.494-1.095,1.77
		c0.918,0.188,1.526,0.93,1.526,1.98c0,1.25-0.818,2.058-2.014,2.058h-2.102V-181.36z M72.402-181.139h-1.549v3.429h1.549
		c1.018,0,1.693-0.686,1.693-1.715S73.42-181.139,72.402-181.139z M72.734-177.489h-1.881v3.651h1.881
		c1.073,0,1.792-0.73,1.792-1.836C74.526-176.758,73.808-177.489,72.734-177.489z"/>
	<path style="fill:#FFFFFF;" d="M77.293-177.655h3.319v0.222h-3.319v3.595h3.762v0.221h-3.982v-7.744h3.927v0.221h-3.706V-177.655z"
		/>
	<path style="fill:#FFFFFF;" d="M83.601-177.655h5.089v-3.706h0.222v7.744h-0.222v-3.816h-5.089v3.816H83.38v-7.744h0.221V-177.655z
		"/>
	<path style="fill:#FFFFFF;" d="M91.898-177.655h5.089v-3.706h0.222v7.744h-0.222v-3.816h-5.089v3.816h-0.221v-7.744h0.221V-177.655
		z"/>
	<path style="fill:#FFFFFF;" d="M99.977-181.36h0.221v3.706h1.715c1.184,0,1.991,0.797,1.991,2.014c0,1.228-0.808,2.024-1.991,2.024
		h-1.936V-181.36z M101.912-177.433h-1.715v3.595h1.715c1.063,0,1.771-0.719,1.771-1.803
		C103.683-176.714,102.975-177.433,101.912-177.433z M105.286-181.36h0.222v7.744h-0.222V-181.36z"/>
	<path style="fill:#FFFFFF;" d="M114.026-181.36v7.744h-0.221v-7.368l-5.311,7.368h-0.221v-7.744h0.221v7.368l5.311-7.368H114.026z
		 M112.356-182.865l0.166,0.166c-0.365,0.365-0.808,0.586-1.372,0.586s-1.007-0.221-1.372-0.586l0.166-0.166
		c0.321,0.321,0.697,0.531,1.206,0.531S112.035-182.544,112.356-182.865z"/>
	<path style="fill:#FFFFFF;" d="M2.772-154.648v1.659H2.551v-1.88c0.808,0,1.328-0.476,1.328-1.715v-5.808h4.203v7.522h0.774v1.88
		H8.636v-1.659H2.772z M3.403-154.87h4.458v-7.301H4.1v5.598C4.1-155.732,3.846-155.157,3.403-154.87z"/>
	<path style="fill:#FFFFFF;" d="M11.071-162.392h1.825c1.184,0,1.991,0.796,1.991,2.024c0,1.217-0.808,2.013-1.991,2.013h-1.604
		v3.706h-0.221V-162.392z M12.896-162.171h-1.604v3.595h1.604c1.062,0,1.77-0.719,1.77-1.792
		C14.666-161.452,13.958-162.171,12.896-162.171z"/>
	<path style="fill:#FFFFFF;" d="M21.139-157.414h-4.182l-1.217,2.766h-0.243l3.429-7.744h0.244l3.429,7.744h-0.243L21.139-157.414z
		 M17.057-157.635h3.982l-1.991-4.514L17.057-157.635z"/>
	<path style="fill:#FFFFFF;" d="M31.463-161.895l-3.12,5.255H28.1l-3.12-5.255v7.246h-0.221v-7.744h0.199l3.264,5.531l3.263-5.531
		h0.199v7.744h-0.221V-161.895z"/>
	<path style="fill:#FFFFFF;" d="M39.484-157.414h-4.182l-1.217,2.766h-0.243l3.429-7.744h0.244l3.429,7.744h-0.243L39.484-157.414z
		 M35.402-157.635h3.982l-1.991-4.514L35.402-157.635z"/>
	<path style="fill:#FFFFFF;" d="M44.266-154.648h-0.221v-7.522H41.61v-0.221h5.089v0.221h-2.434V-154.648z"/>
	<path style="fill:#FFFFFF;" d="M54.643-162.392v7.744h-0.221v-7.368l-5.311,7.368h-0.221v-7.744h0.221v7.368l5.311-7.368H54.643z"
		/>
	<path style="fill:#FFFFFF;" d="M61.416-154.648v-3.739c-0.521,0.166-1.262,0.254-1.793,0.254c-1.416,0-2.212-0.785-2.212-2.257
		v-2.002h0.221v2.002c0,1.162,0.564,2.036,1.991,2.036c0.498,0,1.306-0.077,1.793-0.254v-3.783h0.221v7.744H61.416z"/>
	<path style="fill:#FFFFFF;" d="M64.624-158.687h3.319v0.222h-3.319v3.595h3.762v0.221h-3.982v-7.744h3.927v0.221h-3.706V-158.687z"
		/>
	<path style="fill:#FFFFFF;" d="M74.085-154.814c1.095,0,2.002-0.387,2.633-1.062l0.166,0.155c-0.675,0.719-1.648,1.128-2.799,1.128
		c-2.279,0-3.816-1.593-3.816-3.927c0-2.334,1.537-3.927,3.816-3.927c1.15,0,2.124,0.42,2.799,1.128l-0.166,0.166
		c-0.631-0.675-1.538-1.073-2.633-1.073c-2.135,0-3.596,1.505-3.596,3.706C70.489-156.319,71.95-154.814,74.085-154.814z"/>
	<path style="fill:#FFFFFF;" d="M79.042-162.392h0.222v7.744h-0.222V-162.392z M79.617-158.609l3.573-3.783h0.276l-3.573,3.783
		l3.795,3.96h-0.276L79.617-158.609z"/>
	<path style="fill:#FFFFFF;" d="M91.655-162.392v7.744h-0.221v-7.368l-5.311,7.368h-0.221v-7.744h0.221v7.368l5.311-7.368H91.655z"
		/>
	<path style="fill:#FFFFFF;" d="M100.175-162.392v7.744h-0.221v-7.368l-5.311,7.368h-0.221v-7.744h0.221v7.368l5.311-7.368H100.175z
		 M98.505-163.897l0.166,0.166c-0.365,0.365-0.808,0.586-1.372,0.586s-1.007-0.221-1.372-0.586l0.166-0.166
		c0.321,0.321,0.697,0.531,1.206,0.531S98.184-163.576,98.505-163.897z"/>
	<path style="fill:#FFFFFF;" d="M108.143-154.648h-0.221v-7.522h-2.435v-0.221h5.089v0.221h-2.434V-154.648z"/>
	<path style="fill:#FFFFFF;" d="M112.989-158.687h3.319v0.222h-3.319v3.595h3.762v0.221h-3.982v-7.744h3.927v0.221h-3.706V-158.687z
		"/>
	<path style="fill:#FFFFFF;" d="M124.108-157.414h-4.182l-1.217,2.766h-0.243l3.429-7.744h0.244l3.429,7.744h-0.243L124.108-157.414
		z M120.026-157.635h3.982l-1.991-4.514L120.026-157.635z"/>
	<path style="fill:#FFFFFF;" d="M128.89-154.648h-0.221v-7.522h-2.435v-0.221h5.089v0.221h-2.434V-154.648z"/>
	<path style="fill:#FFFFFF;" d="M133.515-162.392h1.825c1.184,0,1.991,0.796,1.991,2.024c0,1.217-0.808,2.013-1.991,2.013h-1.604
		v3.706h-0.221V-162.392z M135.34-162.171h-1.604v3.595h1.604c1.062,0,1.77-0.719,1.77-1.792
		C137.109-161.452,136.401-162.171,135.34-162.171z"/>
</g>
</svg>
